<svg width="1069" height="479" viewBox="0 0 1069 479" fill="none" xmlns="http://www.w3.org/2000/svg">
<g filter="url(#filter0_di)">
<path fill-rule="evenodd" clip-rule="evenodd" d="M194.057 97.6749L190.057 97.1309L188.057 97.6309L186.557 98.1032L185.057 98.9899L184.057 100.131L182.557 102.019L181.557 103.631L180.057 106.131L179.557 107.631L179.057 109.131L178.557 110.631L178.057 112.631L177.557 113.631L178.653 185.131L282.534 283.927L280.798 176.575L203.539 102.019L197.828 98.9899L194.057 97.6749Z" fill="#43D9B8"/>
<path fill-rule="evenodd" clip-rule="evenodd" d="M194.057 97.6749L190.057 97.1309L188.057 97.6309L186.557 98.1032L185.057 98.9899L184.057 100.131L182.557 102.019L181.557 103.631L180.057 106.131L179.557 107.631L179.057 109.131L178.557 110.631L178.057 112.631L177.557 113.631L178.653 185.131L282.534 283.927L280.798 176.575L203.539 102.019L197.828 98.9899L194.057 97.6749Z" fill="url(#paint0_linear)"/>
</g>
<g filter="url(#filter1_di)">
<path fill-rule="evenodd" clip-rule="evenodd" d="M255.994 377.671L266.557 381.54L270.057 382.131L272.759 381.54L275.557 380.131L277.557 377.671L279.057 376.131L280.057 373.631L281.557 370.631L282.557 367.131L283.057 365.631L281.557 294.188L178.332 196.368L179.275 302.901L255.994 377.671Z" fill="#43D9B8"/>
<path fill-rule="evenodd" clip-rule="evenodd" d="M255.994 377.671L266.557 381.54L270.057 382.131L272.759 381.54L275.557 380.131L277.557 377.671L279.057 376.131L280.057 373.631L281.557 370.631L282.557 367.131L283.057 365.631L281.557 294.188L178.332 196.368L179.275 302.901L255.994 377.671Z" fill="url(#paint1_linear)"/>
</g>
<g filter="url(#filter2_di)">
<path d="M359.157 332.774L357.416 116.936L280.165 150.348L282.694 365.846C277.792 383.969 271.577 385.658 255.893 377.438C334.96 446.563 358.659 369.088 359.157 332.774Z" fill="url(#paint2_linear)"/>
<path d="M359.416 116.92L359.392 113.902L356.621 115.1L279.37 148.513L278.149 149.041L278.165 150.371L280.691 365.59C279.506 369.917 278.277 373.138 276.92 375.445C275.548 377.777 274.119 379.05 272.59 379.666C271.049 380.285 269.112 380.356 266.492 379.703C263.857 379.046 260.693 377.696 256.821 375.667L254.576 378.943C274.485 396.349 291.143 404.741 305.035 406.708C319.043 408.692 330.036 404.11 338.376 396.087C346.644 388.133 352.259 376.854 355.84 365.39C359.428 353.907 361.03 342.064 361.157 332.802L361.158 332.781L361.158 332.759L359.416 116.92Z" stroke="url(#paint3_linear)" stroke-opacity="0.57" stroke-width="4"/>
</g>
<g filter="url(#filter3_di)">
<path d="M99.4988 145.874L100.179 361.718L177.594 328.686L176.123 113.178C181.114 95.0797 187.338 93.4211 202.981 101.718C124.255 32.2052 100.175 109.563 99.4988 145.874Z" fill="url(#paint4_linear)"/>
<path d="M98.179 361.724L98.1885 364.742L100.965 363.558L178.379 330.525L179.603 330.003L179.594 328.673L178.125 113.444C179.331 109.123 180.576 105.908 181.945 103.608C183.329 101.283 184.763 100.016 186.296 99.4087C187.839 98.7967 189.777 98.7349 192.394 99.4012C195.026 100.071 198.183 101.436 202.044 103.484L204.305 100.219C184.482 82.7162 167.866 74.242 153.984 72.2068C139.986 70.1545 128.971 74.682 120.591 82.664C112.284 90.5777 106.614 101.829 102.976 113.274C99.3319 124.74 97.6714 136.576 97.4989 145.836L97.4985 145.858L97.4985 145.88L98.179 361.724Z" stroke="url(#paint5_linear)" stroke-opacity="0.57" stroke-width="4"/>
</g>
<g filter="url(#filter4_i)">
<path d="M476.25 225.5H443L410 192.25H509.25L476.25 225.5ZM408.5 193.25V293.5L375.5 326V226.25L408.5 193.25ZM442 226.25V293.25H409.25V193.25L442 226.25ZM477.25 258.5V226.25L510 193.5V226L477.25 258.5ZM543.75 258.5L511.25 226V193.5L543.75 226.25V258.5ZM443.25 226.5H476V243.25H443.25V226.5ZM510.5 293.25L477.25 259.75L510.5 226.75L543.5 259.75L510.5 293.25ZM509.25 293.25H443.25V260.5H476.25L509.25 293.25ZM476.25 327H376.5L409 294.5H509.25L476.25 327ZM510.5 360.75L477.25 327.75L510.5 294.5L543.5 327.75L510.5 360.75ZM376.5 328.5H476.25L509.25 361H409L376.5 328.5ZM552.908 258.75V158L585.908 124.75V225.75L552.908 258.75ZM586.908 225.5V124.75L619.658 158V225.5H586.908ZM618.908 226.5L586.408 259.5H553.908L586.658 226.5H618.908ZM587.408 260.25L620.408 226.5L653.408 259.75L620.408 293L587.408 260.25ZM553.908 260.5H586.408L618.908 293.25H586.658L553.908 260.5ZM552.908 261.25L585.658 294L552.908 326.25V261.25ZM586.658 294.25H618.908L586.408 327H553.908L586.658 294.25ZM587.408 327.75L620.408 294.75L653.408 327.75L620.408 361L587.408 327.75ZM586.408 328L618.908 361H588.408L553.908 328H586.408ZM695.527 192.5L663.027 159.5L695.527 126.75L728.277 159.5L695.527 192.5ZM695.027 193.5V294.25L662.527 326.5V161L695.027 193.5ZM728.777 161V293.75H696.277V193.5L728.777 161ZM796.277 194L828.777 226.25H729.777V194H796.277ZM828.777 227.75L796.277 260H729.777V227.75H828.777ZM797.277 260.75L829.527 228.5V326.5L797.277 293.75V260.75ZM795.777 261V293.75H763.527V261H795.777ZM795.027 294.75L762.777 327.25H663.277L696.027 294.75H795.027ZM796.527 295.25L829.277 328L796.527 360.5L763.777 328L796.527 295.25ZM762.777 328.5L795.027 361H696.027L663.277 328.5H762.777ZM844.412 220.75L877.912 187.5L911.662 221L877.912 254.25L844.412 220.75ZM844.162 222.5L877.412 255.5V361L844.162 327.75V222.5ZM878.662 361V255.5L912.162 222.5V327.75L878.662 361ZM928.152 258.75V158L961.152 124.75V225.75L928.152 258.75ZM962.152 225.5V124.75L994.902 158V225.5H962.152ZM994.152 226.5L961.652 259.5H929.152L961.902 226.5H994.152ZM962.652 260.25L995.652 226.5L1028.65 259.75L995.652 293L962.652 260.25ZM929.152 260.5H961.652L994.152 293.25H961.902L929.152 260.5ZM928.152 261.25L960.902 294L928.152 326.25V261.25ZM961.902 294.25H994.152L961.652 327H929.152L961.902 294.25ZM962.652 327.75L995.652 294.75L1028.65 327.75L995.652 361L962.652 327.75ZM961.652 328L994.152 361H963.652L929.152 328H961.652Z" fill="url(#paint6_linear)"/>
</g>
<path d="M476.25 225.5V227H476.874L477.315 226.557L476.25 225.5ZM443 225.5L441.935 226.557L442.375 227H443V225.5ZM410 192.25V190.75H406.398L408.935 193.307L410 192.25ZM509.25 192.25L510.315 193.307L512.852 190.75H509.25V192.25ZM408.5 193.25H410V189.629L407.439 192.189L408.5 193.25ZM408.5 293.5L409.552 294.569L410 294.128V293.5H408.5ZM375.5 326H374V329.583L376.552 327.069L375.5 326ZM375.5 226.25L374.439 225.189L374 225.629V226.25H375.5ZM442 226.25H443.5V225.632L443.065 225.193L442 226.25ZM442 293.25V294.75H443.5V293.25H442ZM409.25 293.25H407.75V294.75H409.25V293.25ZM409.25 193.25L410.315 192.193L407.75 189.609V193.25H409.25ZM477.25 258.5H475.75V262.102L478.306 259.565L477.25 258.5ZM477.25 226.25L476.189 225.189L475.75 225.629V226.25H477.25ZM510 193.5H511.5V189.879L508.939 192.439L510 193.5ZM510 226L511.056 227.065L511.5 226.625V226H510ZM543.75 258.5L542.689 259.561L545.25 262.121V258.5H543.75ZM511.25 226H509.75V226.621L510.189 227.061L511.25 226ZM511.25 193.5L512.315 192.443L509.75 189.859V193.5H511.25ZM543.75 226.25H545.25V225.632L544.815 225.193L543.75 226.25ZM443.25 226.5V225H441.75V226.5H443.25ZM476 226.5H477.5V225H476V226.5ZM476 243.25V244.75H477.5V243.25H476ZM443.25 243.25H441.75V244.75H443.25V243.25ZM510.5 293.25L509.435 294.307L510.504 295.383L511.568 294.303L510.5 293.25ZM477.25 259.75L476.193 258.685L475.129 259.742L476.185 260.807L477.25 259.75ZM510.5 226.75L511.561 225.689L510.504 224.633L509.443 225.685L510.5 226.75ZM543.5 259.75L544.568 260.803L545.613 259.742L544.561 258.689L543.5 259.75ZM509.25 293.25V294.75H512.891L510.306 292.185L509.25 293.25ZM443.25 293.25H441.75V294.75H443.25V293.25ZM443.25 260.5V259H441.75V260.5H443.25ZM476.25 260.5L477.306 259.435L476.868 259H476.25V260.5ZM476.25 327V328.5H476.864L477.302 328.069L476.25 327ZM376.5 327L375.439 325.939L372.879 328.5H376.5V327ZM409 294.5V293H408.379L407.939 293.439L409 294.5ZM509.25 294.5L510.302 295.569L512.911 293H509.25V294.5ZM510.5 360.75L509.443 361.815L510.504 362.867L511.561 361.811L510.5 360.75ZM477.25 327.75L476.189 326.689L475.125 327.754L476.193 328.815L477.25 327.75ZM510.5 294.5L511.565 293.443L510.504 292.375L509.439 293.439L510.5 294.5ZM543.5 327.75L544.561 328.811L545.617 327.754L544.565 326.693L543.5 327.75ZM376.5 328.5V327H372.879L375.439 329.561L376.5 328.5ZM476.25 328.5L477.302 327.431L476.864 327H476.25V328.5ZM509.25 361V362.5H512.911L510.302 359.931L509.25 361ZM409 361L407.939 362.061L408.379 362.5H409V361ZM476.25 224H443V227H476.25V224ZM444.065 224.443L411.065 191.193L408.935 193.307L441.935 226.557L444.065 224.443ZM410 193.75H509.25V190.75H410V193.75ZM508.185 191.193L475.185 224.443L477.315 226.557L510.315 193.307L508.185 191.193ZM407 193.25V293.5H410V193.25H407ZM407.447 292.431L374.447 324.931L376.552 327.069L409.552 294.569L407.447 292.431ZM377 326V226.25H374V326H377ZM376.561 227.311L409.561 194.311L407.439 192.189L374.439 225.189L376.561 227.311ZM440.5 226.25V293.25H443.5V226.25H440.5ZM442 291.75H409.25V294.75H442V291.75ZM410.75 293.25V193.25H407.75V293.25H410.75ZM408.185 194.307L440.935 227.307L443.065 225.193L410.315 192.193L408.185 194.307ZM478.75 258.5V226.25H475.75V258.5H478.75ZM478.311 227.311L511.061 194.561L508.939 192.439L476.189 225.189L478.311 227.311ZM508.5 193.5V226H511.5V193.5H508.5ZM508.943 224.935L476.193 257.435L478.306 259.565L511.056 227.065L508.943 224.935ZM544.811 257.439L512.311 224.939L510.189 227.061L542.689 259.561L544.811 257.439ZM512.75 226V193.5H509.75V226H512.75ZM510.185 194.557L542.685 227.307L544.815 225.193L512.315 192.443L510.185 194.557ZM542.25 226.25V258.5H545.25V226.25H542.25ZM443.25 228H476V225H443.25V228ZM474.5 226.5V243.25H477.5V226.5H474.5ZM476 241.75H443.25V244.75H476V241.75ZM444.75 243.25V226.5H441.75V243.25H444.75ZM511.564 292.193L478.314 258.693L476.185 260.807L509.435 294.307L511.564 292.193ZM478.307 260.815L511.557 227.815L509.443 225.685L476.193 258.685L478.307 260.815ZM509.439 227.811L542.439 260.811L544.561 258.689L511.561 225.689L509.439 227.811ZM542.431 258.697L509.431 292.197L511.568 294.303L544.568 260.803L542.431 258.697ZM509.25 291.75H443.25V294.75H509.25V291.75ZM444.75 293.25V260.5H441.75V293.25H444.75ZM443.25 262H476.25V259H443.25V262ZM475.193 261.565L508.193 294.315L510.306 292.185L477.306 259.435L475.193 261.565ZM476.25 325.5H376.5V328.5H476.25V325.5ZM377.561 328.061L410.061 295.561L407.939 293.439L375.439 325.939L377.561 328.061ZM409 296H509.25V293H409V296ZM508.197 293.431L475.197 325.931L477.302 328.069L510.302 295.569L508.197 293.431ZM511.557 359.685L478.307 326.685L476.193 328.815L509.443 361.815L511.557 359.685ZM478.311 328.811L511.561 295.561L509.439 293.439L476.189 326.689L478.311 328.811ZM509.435 295.557L542.435 328.807L544.565 326.693L511.565 293.443L509.435 295.557ZM542.439 326.689L509.439 359.689L511.561 361.811L544.561 328.811L542.439 326.689ZM376.5 330H476.25V327H376.5V330ZM475.197 329.569L508.197 362.069L510.302 359.931L477.302 327.431L475.197 329.569ZM509.25 359.5H409V362.5H509.25V359.5ZM410.061 359.939L377.561 327.439L375.439 329.561L407.939 362.061L410.061 359.939ZM552.908 258.75H551.408V262.371L553.969 259.811L552.908 258.75ZM552.908 158L551.843 156.943L551.408 157.382V158H552.908ZM585.908 124.75H587.408V121.109L584.843 123.693L585.908 124.75ZM585.908 225.75L586.969 226.811L587.408 226.371V225.75H585.908ZM586.908 225.5H585.408V227H586.908V225.5ZM586.908 124.75L587.977 123.697L585.408 121.09V124.75H586.908ZM619.658 158H621.158V157.385L620.727 156.947L619.658 158ZM619.658 225.5V227H621.158V225.5H619.658ZM618.908 226.5L619.977 227.553L622.491 225H618.908V226.5ZM586.408 259.5V261H587.036L587.477 260.553L586.408 259.5ZM553.908 259.5L552.843 258.443L550.306 261H553.908V259.5ZM586.658 226.5V225H586.033L585.593 225.443L586.658 226.5ZM587.408 260.25L586.336 259.201L585.295 260.266L586.351 261.315L587.408 260.25ZM620.408 226.5L621.473 225.443L620.4 224.363L619.336 225.451L620.408 226.5ZM653.408 259.75L654.473 260.807L655.521 259.75L654.473 258.693L653.408 259.75ZM620.408 293L619.351 294.065L620.416 295.121L621.473 294.057L620.408 293ZM553.908 260.5V259H550.287L552.847 261.561L553.908 260.5ZM586.408 260.5L587.473 259.443L587.033 259H586.408V260.5ZM618.908 293.25V294.75H622.51L619.973 292.193L618.908 293.25ZM586.658 293.25L585.597 294.311L586.037 294.75H586.658V293.25ZM552.908 261.25L553.969 260.189L551.408 257.629V261.25H552.908ZM585.658 294L586.711 295.069L587.788 294.008L586.719 292.939L585.658 294ZM552.908 326.25H551.408V329.832L553.961 327.319L552.908 326.25ZM586.658 294.25V292.75H586.037L585.597 293.189L586.658 294.25ZM618.908 294.25L619.973 295.307L622.51 292.75H618.908V294.25ZM586.408 327V328.5H587.033L587.473 328.057L586.408 327ZM553.908 327L552.847 325.939L550.287 328.5H553.908V327ZM587.408 327.75L586.347 326.689L585.291 327.746L586.343 328.807L587.408 327.75ZM620.408 294.75L621.469 293.689L620.408 292.629L619.347 293.689L620.408 294.75ZM653.408 327.75L654.473 328.807L655.525 327.746L654.469 326.689L653.408 327.75ZM620.408 361L619.343 362.057L620.408 363.129L621.473 362.057L620.408 361ZM586.408 328L587.477 326.947L587.036 326.5H586.408V328ZM618.908 361V362.5H622.491L619.977 359.947L618.908 361ZM588.408 361L587.371 362.084L587.806 362.5H588.408V361ZM553.908 328V326.5H550.17L552.871 329.084L553.908 328ZM554.408 258.75V158H551.408V258.75H554.408ZM553.973 159.057L586.973 125.807L584.843 123.693L551.843 156.943L553.973 159.057ZM584.408 124.75V225.75H587.408V124.75H584.408ZM584.847 224.689L551.847 257.689L553.969 259.811L586.969 226.811L584.847 224.689ZM588.408 225.5V124.75H585.408V225.5H588.408ZM585.839 125.803L618.589 159.053L620.727 156.947L587.977 123.697L585.839 125.803ZM618.158 158V225.5H621.158V158H618.158ZM619.658 224H586.908V227H619.658V224ZM617.839 225.447L585.339 258.447L587.477 260.553L619.977 227.553L617.839 225.447ZM586.408 258H553.908V261H586.408V258ZM554.973 260.557L587.723 227.557L585.593 225.443L552.843 258.443L554.973 260.557ZM586.658 228H618.908V225H586.658V228ZM588.481 261.299L621.481 227.549L619.336 225.451L586.336 259.201L588.481 261.299ZM619.343 227.557L652.343 260.807L654.473 258.693L621.473 225.443L619.343 227.557ZM652.343 258.693L619.343 291.943L621.473 294.057L654.473 260.807L652.343 258.693ZM621.465 291.935L588.465 259.185L586.351 261.315L619.351 294.065L621.465 291.935ZM553.908 262H586.408V259H553.908V262ZM585.343 261.557L617.843 294.307L619.973 292.193L587.473 259.443L585.343 261.557ZM618.908 291.75H586.658V294.75H618.908V291.75ZM587.719 292.189L554.969 259.439L552.847 261.561L585.597 294.311L587.719 292.189ZM551.847 262.311L584.597 295.061L586.719 292.939L553.969 260.189L551.847 262.311ZM584.606 292.931L551.856 325.181L553.961 327.319L586.711 295.069L584.606 292.931ZM554.408 326.25V261.25H551.408V326.25H554.408ZM586.658 295.75H618.908V292.75H586.658V295.75ZM617.843 293.193L585.343 325.943L587.473 328.057L619.973 295.307L617.843 293.193ZM586.408 325.5H553.908V328.5H586.408V325.5ZM554.969 328.061L587.719 295.311L585.597 293.189L552.847 325.939L554.969 328.061ZM588.469 328.811L621.469 295.811L619.347 293.689L586.347 326.689L588.469 328.811ZM619.347 295.811L652.347 328.811L654.469 326.689L621.469 293.689L619.347 295.811ZM652.343 326.693L619.343 359.943L621.473 362.057L654.473 328.807L652.343 326.693ZM621.473 359.943L588.473 326.693L586.343 328.807L619.343 362.057L621.473 359.943ZM585.339 329.053L617.839 362.053L619.977 359.947L587.477 326.947L585.339 329.053ZM618.908 359.5H588.408V362.5H618.908V359.5ZM589.445 359.916L554.945 326.916L552.871 329.084L587.371 362.084L589.445 359.916ZM553.908 329.5H586.408V326.5H553.908V329.5ZM695.527 192.5L694.458 193.553L695.523 194.634L696.592 193.557L695.527 192.5ZM663.027 159.5L661.962 158.443L660.918 159.496L661.958 160.553L663.027 159.5ZM695.527 126.75L696.588 125.689L695.523 124.625L694.462 125.693L695.527 126.75ZM728.277 159.5L729.342 160.557L730.395 159.496L729.338 158.439L728.277 159.5ZM695.027 193.5H696.527V192.879L696.088 192.439L695.027 193.5ZM695.027 294.25L696.084 295.315L696.527 294.875V294.25H695.027ZM662.527 326.5H661.027V330.102L663.584 327.565L662.527 326.5ZM662.527 161L663.588 159.939L661.027 157.379V161H662.527ZM728.777 161H730.277V157.379L727.717 159.939L728.777 161ZM728.777 293.75V295.25H730.277V293.75H728.777ZM696.277 293.75H694.777V295.25H696.277V293.75ZM696.277 193.5L695.217 192.439L694.777 192.879V193.5H696.277ZM796.277 194L797.334 192.935L796.895 192.5H796.277V194ZM828.777 226.25V227.75H832.418L829.834 225.185L828.777 226.25ZM729.777 226.25H728.277V227.75H729.777V226.25ZM729.777 194V192.5H728.277V194H729.777ZM828.777 227.75L829.834 228.815L832.418 226.25H828.777V227.75ZM796.277 260V261.5H796.895L797.334 261.065L796.277 260ZM729.777 260H728.277V261.5H729.777V260ZM729.777 227.75V226.25H728.277V227.75H729.777ZM797.277 260.75L796.217 259.689L795.777 260.129V260.75H797.277ZM829.527 228.5H831.027V224.879L828.467 227.439L829.527 228.5ZM829.527 326.5L828.458 327.552L831.027 330.161V326.5H829.527ZM797.277 293.75H795.777V294.365L796.208 294.802L797.277 293.75ZM795.777 261H797.277V259.5H795.777V261ZM795.777 293.75V295.25H797.277V293.75H795.777ZM763.527 293.75H762.027V295.25H763.527V293.75ZM763.527 261V259.5H762.027V261H763.527ZM795.027 294.75L796.092 295.807L798.629 293.25H795.027V294.75ZM762.777 327.25V328.75H763.402L763.842 328.307L762.777 327.25ZM663.277 327.25L662.221 326.185L659.636 328.75H663.277V327.25ZM696.027 294.75V293.25H695.409L694.971 293.685L696.027 294.75ZM796.527 295.25L797.588 294.189L796.527 293.129L795.467 294.189L796.527 295.25ZM829.277 328L830.334 329.065L831.403 328.004L830.338 326.939L829.277 328ZM796.527 360.5L795.471 361.565L796.527 362.613L797.584 361.565L796.527 360.5ZM763.777 328L762.717 326.939L761.652 328.004L762.721 329.065L763.777 328ZM762.777 328.5L763.842 327.443L763.402 327H762.777V328.5ZM795.027 361V362.5H798.629L796.092 359.943L795.027 361ZM696.027 361L694.971 362.065L695.409 362.5H696.027V361ZM663.277 328.5V327H659.636L662.221 329.565L663.277 328.5ZM696.596 191.447L664.096 158.447L661.958 160.553L694.458 193.553L696.596 191.447ZM664.092 160.557L696.592 127.807L694.462 125.693L661.962 158.443L664.092 160.557ZM694.467 127.811L727.217 160.561L729.338 158.439L696.588 125.689L694.467 127.811ZM727.212 158.443L694.462 191.443L696.592 193.557L729.342 160.557L727.212 158.443ZM693.527 193.5V294.25H696.527V193.5H693.527ZM693.971 293.185L661.471 325.435L663.584 327.565L696.084 295.315L693.971 293.185ZM664.027 326.5V161H661.027V326.5H664.027ZM661.467 162.061L693.967 194.561L696.088 192.439L663.588 159.939L661.467 162.061ZM727.277 161V293.75H730.277V161H727.277ZM728.777 292.25H696.277V295.25H728.777V292.25ZM697.777 293.75V193.5H694.777V293.75H697.777ZM697.338 194.561L729.838 162.061L727.717 159.939L695.217 192.439L697.338 194.561ZM795.221 195.065L827.721 227.315L829.834 225.185L797.334 192.935L795.221 195.065ZM828.777 224.75H729.777V227.75H828.777V224.75ZM731.277 226.25V194H728.277V226.25H731.277ZM729.777 195.5H796.277V192.5H729.777V195.5ZM827.721 226.685L795.221 258.935L797.334 261.065L829.834 228.815L827.721 226.685ZM796.277 258.5H729.777V261.5H796.277V258.5ZM731.277 260V227.75H728.277V260H731.277ZM729.777 229.25H828.777V226.25H729.777V229.25ZM798.338 261.811L830.588 229.561L828.467 227.439L796.217 259.689L798.338 261.811ZM828.027 228.5V326.5H831.027V228.5H828.027ZM830.596 325.448L798.346 292.698L796.208 294.802L828.458 327.552L830.596 325.448ZM798.777 293.75V260.75H795.777V293.75H798.777ZM794.277 261V293.75H797.277V261H794.277ZM795.777 292.25H763.527V295.25H795.777V292.25ZM765.027 293.75V261H762.027V293.75H765.027ZM763.527 262.5H795.777V259.5H763.527V262.5ZM793.962 293.693L761.712 326.193L763.842 328.307L796.092 295.807L793.962 293.693ZM762.777 325.75H663.277V328.75H762.777V325.75ZM664.334 328.315L697.084 295.815L694.971 293.685L662.221 326.185L664.334 328.315ZM696.027 296.25H795.027V293.25H696.027V296.25ZM795.467 296.311L828.217 329.061L830.338 326.939L797.588 294.189L795.467 296.311ZM828.221 326.935L795.471 359.435L797.584 361.565L830.334 329.065L828.221 326.935ZM797.584 359.435L764.834 326.935L762.721 329.065L795.471 361.565L797.584 359.435ZM764.838 329.061L797.588 296.311L795.467 294.189L762.717 326.939L764.838 329.061ZM761.712 329.557L793.962 362.057L796.092 359.943L763.842 327.443L761.712 329.557ZM795.027 359.5H696.027V362.5H795.027V359.5ZM697.084 359.935L664.334 327.435L662.221 329.565L694.971 362.065L697.084 359.935ZM663.277 330H762.777V327H663.277V330ZM844.412 220.75L843.355 219.685L842.287 220.746L843.351 221.811L844.412 220.75ZM877.912 187.5L878.969 186.435L877.912 185.387L876.855 186.435L877.912 187.5ZM911.662 221L912.715 222.069L913.795 221.004L912.719 219.935L911.662 221ZM877.912 254.25L876.851 255.311L877.904 256.363L878.965 255.319L877.912 254.25ZM844.162 222.5L845.219 221.435L842.662 218.898V222.5H844.162ZM877.412 255.5H878.912V254.875L878.469 254.435L877.412 255.5ZM877.412 361L876.351 362.061L878.912 364.621V361H877.412ZM844.162 327.75H842.662V328.371L843.101 328.811L844.162 327.75ZM878.662 361H877.162V364.602L879.719 362.065L878.662 361ZM878.662 255.5L877.609 254.431L877.162 254.872V255.5H878.662ZM912.162 222.5H913.662V218.917L911.109 221.431L912.162 222.5ZM912.162 327.75L913.219 328.815L913.662 328.375V327.75H912.162ZM845.469 221.815L878.969 188.565L876.855 186.435L843.355 219.685L845.469 221.815ZM876.855 188.565L910.605 222.065L912.719 219.935L878.969 186.435L876.855 188.565ZM910.609 219.931L876.859 253.181L878.965 255.319L912.715 222.069L910.609 219.931ZM878.973 253.189L845.473 219.689L843.351 221.811L876.851 255.311L878.973 253.189ZM843.105 223.565L876.355 256.565L878.469 254.435L845.219 221.435L843.105 223.565ZM875.912 255.5V361H878.912V255.5H875.912ZM878.473 359.939L845.223 326.689L843.101 328.811L876.351 362.061L878.473 359.939ZM845.662 327.75V222.5H842.662V327.75H845.662ZM880.162 361V255.5H877.162V361H880.162ZM879.715 256.569L913.215 223.569L911.109 221.431L877.609 254.431L879.715 256.569ZM910.662 222.5V327.75H913.662V222.5H910.662ZM911.105 326.685L877.605 359.935L879.719 362.065L913.219 328.815L911.105 326.685ZM928.152 258.75H926.652V262.371L929.213 259.811L928.152 258.75ZM928.152 158L927.088 156.943L926.652 157.382V158H928.152ZM961.152 124.75H962.652V121.109L960.088 123.693L961.152 124.75ZM961.152 225.75L962.213 226.811L962.652 226.371V225.75H961.152ZM962.152 225.5H960.652V227H962.152V225.5ZM962.152 124.75L963.221 123.697L960.652 121.09V124.75H962.152ZM994.902 158H996.402V157.385L995.971 156.947L994.902 158ZM994.902 225.5V227H996.402V225.5H994.902ZM994.152 226.5L995.221 227.553L997.735 225H994.152V226.5ZM961.652 259.5V261H962.28L962.721 260.553L961.652 259.5ZM929.152 259.5L928.087 258.443L925.55 261H929.152V259.5ZM961.902 226.5V225H961.278L960.837 225.443L961.902 226.5ZM962.652 260.25L961.58 259.201L960.539 260.266L961.596 261.315L962.652 260.25ZM995.652 226.5L996.717 225.443L995.644 224.363L994.58 225.451L995.652 226.5ZM1028.65 259.75L1029.72 260.807L1030.77 259.75L1029.72 258.693L1028.65 259.75ZM995.652 293L994.596 294.065L995.66 295.121L996.717 294.057L995.652 293ZM929.152 260.5V259H925.531L928.092 261.561L929.152 260.5ZM961.652 260.5L962.717 259.443L962.277 259H961.652V260.5ZM994.152 293.25V294.75H997.754L995.217 292.193L994.152 293.25ZM961.902 293.25L960.842 294.311L961.281 294.75H961.902V293.25ZM928.152 261.25L929.213 260.189L926.652 257.629V261.25H928.152ZM960.902 294L961.955 295.069L963.032 294.008L961.963 292.939L960.902 294ZM928.152 326.25H926.652V329.832L929.205 327.319L928.152 326.25ZM961.902 294.25V292.75H961.281L960.842 293.189L961.902 294.25ZM994.152 294.25L995.217 295.307L997.754 292.75H994.152V294.25ZM961.652 327V328.5H962.277L962.717 328.057L961.652 327ZM929.152 327L928.092 325.939L925.531 328.5H929.152V327ZM962.652 327.75L961.592 326.689L960.535 327.746L961.588 328.807L962.652 327.75ZM995.652 294.75L996.713 293.689L995.652 292.629L994.592 293.689L995.652 294.75ZM1028.65 327.75L1029.72 328.807L1030.77 327.746L1029.71 326.689L1028.65 327.75ZM995.652 361L994.588 362.057L995.652 363.129L996.717 362.057L995.652 361ZM961.652 328L962.721 326.947L962.28 326.5H961.652V328ZM994.152 361V362.5H997.735L995.221 359.947L994.152 361ZM963.652 361L962.615 362.084L963.05 362.5H963.652V361ZM929.152 328V326.5H925.414L928.115 329.084L929.152 328ZM929.652 258.75V158H926.652V258.75H929.652ZM929.217 159.057L962.217 125.807L960.088 123.693L927.088 156.943L929.217 159.057ZM959.652 124.75V225.75H962.652V124.75H959.652ZM960.092 224.689L927.092 257.689L929.213 259.811L962.213 226.811L960.092 224.689ZM963.652 225.5V124.75H960.652V225.5H963.652ZM961.084 125.803L993.834 159.053L995.971 156.947L963.221 123.697L961.084 125.803ZM993.402 158V225.5H996.402V158H993.402ZM994.902 224H962.152V227H994.902V224ZM993.083 225.447L960.583 258.447L962.721 260.553L995.221 227.553L993.083 225.447ZM961.652 258H929.152V261H961.652V258ZM930.217 260.557L962.967 227.557L960.837 225.443L928.087 258.443L930.217 260.557ZM961.902 228H994.152V225H961.902V228ZM963.725 261.299L996.725 227.549L994.58 225.451L961.58 259.201L963.725 261.299ZM994.588 227.557L1027.59 260.807L1029.72 258.693L996.717 225.443L994.588 227.557ZM1027.59 258.693L994.588 291.943L996.717 294.057L1029.72 260.807L1027.59 258.693ZM996.709 291.935L963.709 259.185L961.596 261.315L994.596 294.065L996.709 291.935ZM929.152 262H961.652V259H929.152V262ZM960.587 261.557L993.087 294.307L995.217 292.193L962.717 259.443L960.587 261.557ZM994.152 291.75H961.902V294.75H994.152V291.75ZM962.963 292.189L930.213 259.439L928.092 261.561L960.842 294.311L962.963 292.189ZM927.092 262.311L959.842 295.061L961.963 292.939L929.213 260.189L927.092 262.311ZM959.85 292.931L927.1 325.181L929.205 327.319L961.955 295.069L959.85 292.931ZM929.652 326.25V261.25H926.652V326.25H929.652ZM961.902 295.75H994.152V292.75H961.902V295.75ZM993.087 293.193L960.587 325.943L962.717 328.057L995.217 295.307L993.087 293.193ZM961.652 325.5H929.152V328.5H961.652V325.5ZM930.213 328.061L962.963 295.311L960.842 293.189L928.092 325.939L930.213 328.061ZM963.713 328.811L996.713 295.811L994.592 293.689L961.592 326.689L963.713 328.811ZM994.592 295.811L1027.59 328.811L1029.71 326.689L996.713 293.689L994.592 295.811ZM1027.59 326.693L994.588 359.943L996.717 362.057L1029.72 328.807L1027.59 326.693ZM996.717 359.943L963.717 326.693L961.588 328.807L994.588 362.057L996.717 359.943ZM960.583 329.053L993.083 362.053L995.221 359.947L962.721 326.947L960.583 329.053ZM994.152 359.5H963.652V362.5H994.152V359.5ZM964.689 359.916L930.189 326.916L928.115 329.084L962.615 362.084L964.689 359.916ZM929.152 329.5H961.652V326.5H929.152V329.5Z" fill="white"/>
<defs>
<filter id="filter0_di" x="144.111" y="76.1217" width="180.184" height="238.084" filterUnits="userSpaceOnUse" color-interpolation-filters="sRGB">
<feFlood flood-opacity="0" result="BackgroundImageFix"/>
<feColorMatrix in="SourceAlpha" type="matrix" values="0 0 0 0 0 0 0 0 0 0 0 0 0 0 0 0 0 0 127 0"/>
<feOffset dy="4"/>
<feGaussianBlur stdDeviation="2"/>
<feColorMatrix type="matrix" values="0 0 0 0 0 0 0 0 0 0 0 0 0 0 0 0 0 0 0.25 0"/>
<feBlend mode="normal" in2="BackgroundImageFix" result="effect1_dropShadow"/>
<feBlend mode="normal" in="SourceGraphic" in2="effect1_dropShadow" result="shape"/>
<feColorMatrix in="SourceAlpha" type="matrix" values="0 0 0 0 0 0 0 0 0 0 0 0 0 0 0 0 0 0 127 0" result="hardAlpha"/>
<feOffset dy="4"/>
<feGaussianBlur stdDeviation="2"/>
<feComposite in2="hardAlpha" operator="arithmetic" k2="-1" k3="1"/>
<feColorMatrix type="matrix" values="0 0 0 0 0 0 0 0 0 0 0 0 0 0 0 0 0 0 0.25 0"/>
<feBlend mode="normal" in2="shape" result="effect2_innerShadow"/>
</filter>
<filter id="filter1_di" x="174.332" y="196.368" width="112.725" height="193.763" filterUnits="userSpaceOnUse" color-interpolation-filters="sRGB">
<feFlood flood-opacity="0" result="BackgroundImageFix"/>
<feColorMatrix in="SourceAlpha" type="matrix" values="0 0 0 0 0 0 0 0 0 0 0 0 0 0 0 0 0 0 127 0"/>
<feOffset dy="4"/>
<feGaussianBlur stdDeviation="2"/>
<feColorMatrix type="matrix" values="0 0 0 0 0 0 0 0 0 0 0 0 0 0 0 0 0 0 0.25 0"/>
<feBlend mode="normal" in2="BackgroundImageFix" result="effect1_dropShadow"/>
<feBlend mode="normal" in="SourceGraphic" in2="effect1_dropShadow" result="shape"/>
<feColorMatrix in="SourceAlpha" type="matrix" values="0 0 0 0 0 0 0 0 0 0 0 0 0 0 0 0 0 0 127 0" result="hardAlpha"/>
<feOffset dy="4"/>
<feGaussianBlur stdDeviation="2"/>
<feComposite in2="hardAlpha" operator="arithmetic" k2="-1" k3="1"/>
<feColorMatrix type="matrix" values="0 0 0 0 0 0 0 0 0 0 0 0 0 0 0 0 0 0 0.25 0"/>
<feBlend mode="normal" in2="shape" result="effect2_innerShadow"/>
</filter>
<filter id="filter2_di" x="243.26" y="104.868" width="129.898" height="318.301" filterUnits="userSpaceOnUse" color-interpolation-filters="sRGB">
<feFlood flood-opacity="0" result="BackgroundImageFix"/>
<feColorMatrix in="SourceAlpha" type="matrix" values="0 0 0 0 0 0 0 0 0 0 0 0 0 0 0 0 0 0 127 0"/>
<feOffset dy="4"/>
<feGaussianBlur stdDeviation="5"/>
<feColorMatrix type="matrix" values="0 0 0 0 0 0 0 0 0 0 0 0 0 0 0 0 0 0 0.25 0"/>
<feBlend mode="normal" in2="BackgroundImageFix" result="effect1_dropShadow"/>
<feBlend mode="normal" in="SourceGraphic" in2="effect1_dropShadow" result="shape"/>
<feColorMatrix in="SourceAlpha" type="matrix" values="0 0 0 0 0 0 0 0 0 0 0 0 0 0 0 0 0 0 127 0" result="hardAlpha"/>
<feOffset dy="4"/>
<feGaussianBlur stdDeviation="2"/>
<feComposite in2="hardAlpha" operator="arithmetic" k2="-1" k3="1"/>
<feColorMatrix type="matrix" values="0 0 0 0 0 0 0 0 0 0 0 0 0 0 0 0 0 0 0.25 0"/>
<feBlend mode="normal" in2="shape" result="effect2_innerShadow"/>
</filter>
<filter id="filter3_di" x="85.4981" y="63.7143" width="130.131" height="318.052" filterUnits="userSpaceOnUse" color-interpolation-filters="sRGB">
<feFlood flood-opacity="0" result="BackgroundImageFix"/>
<feColorMatrix in="SourceAlpha" type="matrix" values="0 0 0 0 0 0 0 0 0 0 0 0 0 0 0 0 0 0 127 0"/>
<feOffset dy="4"/>
<feGaussianBlur stdDeviation="5"/>
<feColorMatrix type="matrix" values="0 0 0 0 0 0 0 0 0 0 0 0 0 0 0 0 0 0 0.25 0"/>
<feBlend mode="normal" in2="BackgroundImageFix" result="effect1_dropShadow"/>
<feBlend mode="normal" in="SourceGraphic" in2="effect1_dropShadow" result="shape"/>
<feColorMatrix in="SourceAlpha" type="matrix" values="0 0 0 0 0 0 0 0 0 0 0 0 0 0 0 0 0 0 127 0" result="hardAlpha"/>
<feOffset dy="4"/>
<feGaussianBlur stdDeviation="2"/>
<feComposite in2="hardAlpha" operator="arithmetic" k2="-1" k3="1"/>
<feColorMatrix type="matrix" values="0 0 0 0 0 0 0 0 0 0 0 0 0 0 0 0 0 0 0.25 0"/>
<feBlend mode="normal" in2="shape" result="effect2_innerShadow"/>
</filter>
<filter id="filter4_i" x="372.879" y="121.09" width="657.891" height="247.532" filterUnits="userSpaceOnUse" color-interpolation-filters="sRGB">
<feFlood flood-opacity="0" result="BackgroundImageFix"/>
<feBlend mode="normal" in="SourceGraphic" in2="BackgroundImageFix" result="shape"/>
<feColorMatrix in="SourceAlpha" type="matrix" values="0 0 0 0 0 0 0 0 0 0 0 0 0 0 0 0 0 0 127 0" result="hardAlpha"/>
<feOffset dy="4"/>
<feGaussianBlur stdDeviation="2"/>
<feComposite in2="hardAlpha" operator="arithmetic" k2="-1" k3="1"/>
<feColorMatrix type="matrix" values="0 0 0 0 0 0 0 0 0 0 0 0 0 0 0 0 0 0 0.25 0"/>
<feBlend mode="normal" in2="shape" result="effect1_innerShadow"/>
</filter>
<linearGradient id="paint0_linear" x1="294.997" y1="246.565" x2="116.623" y2="80.4554" gradientUnits="userSpaceOnUse">
<stop stop-color="#0F052F"/>
<stop offset="0.458333" stop-color="#251C42" stop-opacity="0.908155"/>
<stop offset="0.635417" stop-color="#453D5E" stop-opacity="0.775073"/>
<stop offset="1" stop-color="white" stop-opacity="0"/>
</linearGradient>
<linearGradient id="paint1_linear" x1="164.152" y1="232.573" x2="342.709" y2="400.308" gradientUnits="userSpaceOnUse">
<stop stop-color="#0F052F"/>
<stop offset="0.458333" stop-color="#251C42" stop-opacity="0.908155"/>
<stop offset="0.635417" stop-color="#453D5E" stop-opacity="0.775073"/>
<stop offset="1" stop-color="white" stop-opacity="0"/>
</linearGradient>
<linearGradient id="paint2_linear" x1="275" y1="401" x2="361.122" y2="107.036" gradientUnits="userSpaceOnUse">
<stop stop-color="#1E293F"/>
<stop offset="1" stop-color="#9EB1CD" stop-opacity="0.73"/>
</linearGradient>
<linearGradient id="paint3_linear" x1="299" y1="416" x2="347.131" y2="98.0202" gradientUnits="userSpaceOnUse">
<stop stop-color="#1C79E7"/>
<stop offset="1" stop-color="#3F78BB" stop-opacity="0"/>
</linearGradient>
<linearGradient id="paint4_linear" x1="183.99" y1="78.0623" x2="96.4251" y2="371.6" gradientUnits="userSpaceOnUse">
<stop stop-color="#1E293F"/>
<stop offset="1" stop-color="#9EB1CD" stop-opacity="0.73"/>
</linearGradient>
<linearGradient id="paint5_linear" x1="160.064" y1="62.9446" x2="110.371" y2="380.684" gradientUnits="userSpaceOnUse">
<stop stop-color="#1C79E7"/>
<stop offset="1" stop-color="#3F78BB" stop-opacity="0"/>
</linearGradient>
<linearGradient id="paint6_linear" x1="297.231" y1="297.398" x2="1128" y2="294.02" gradientUnits="userSpaceOnUse">
<stop offset="0.03125" stop-color="#0E0E60" stop-opacity="0.979152"/>
<stop offset="0.484375" stop-color="#50506A" stop-opacity="0.897813"/>
<stop offset="0.703125" stop-color="#232385"/>
<stop offset="0.979167" stop-color="#67677F" stop-opacity="0.676702"/>
</linearGradient>
</defs>
</svg>
