<svg width="1038" height="491" viewBox="0 0 1038 491" fill="none" xmlns="http://www.w3.org/2000/svg">
<g filter="url(#filter0_di)">
<path fill-rule="evenodd" clip-rule="evenodd" d="M201.057 103.675L197.057 103.131L195.057 103.631L193.557 104.103L192.057 104.99L191.057 106.131L189.557 108.019L188.557 109.631L187.057 112.131L186.557 113.631L186.057 115.131L185.557 116.631L185.057 118.631L184.557 119.631L185.653 191.131L289.534 289.927L287.798 182.575L210.539 108.019L204.828 104.99L201.057 103.675Z" fill="#43D9B8"/>
<path fill-rule="evenodd" clip-rule="evenodd" d="M201.057 103.675L197.057 103.131L195.057 103.631L193.557 104.103L192.057 104.99L191.057 106.131L189.557 108.019L188.557 109.631L187.057 112.131L186.557 113.631L186.057 115.131L185.557 116.631L185.057 118.631L184.557 119.631L185.653 191.131L289.534 289.927L287.798 182.575L210.539 108.019L204.828 104.99L201.057 103.675Z" fill="url(#paint0_linear)"/>
</g>
<g filter="url(#filter1_di)">
<path fill-rule="evenodd" clip-rule="evenodd" d="M262.994 383.671L273.557 387.54L277.057 388.131L279.759 387.54L282.557 386.131L284.557 383.671L286.057 382.131L287.057 379.631L288.557 376.631L289.557 373.131L290.057 371.631L288.557 300.188L185.332 202.368L186.275 308.901L262.994 383.671Z" fill="#43D9B8"/>
<path fill-rule="evenodd" clip-rule="evenodd" d="M262.994 383.671L273.557 387.54L277.057 388.131L279.759 387.54L282.557 386.131L284.557 383.671L286.057 382.131L287.057 379.631L288.557 376.631L289.557 373.131L290.057 371.631L288.557 300.188L185.332 202.368L186.275 308.901L262.994 383.671Z" fill="url(#paint1_linear)"/>
</g>
<g filter="url(#filter2_di)">
<path d="M366.157 338.774L364.416 122.936L287.165 156.348L289.694 371.846C284.792 389.969 278.577 391.658 262.893 383.438C341.96 452.563 365.659 375.088 366.157 338.774Z" fill="url(#paint2_linear)"/>
</g>
<g filter="url(#filter3_di)">
<path fill-rule="evenodd" clip-rule="evenodd" d="M368.368 116.868L370.158 338.787L370.158 338.83C370.028 348.274 368.398 360.31 364.75 371.987C361.114 383.624 355.365 395.253 346.763 403.528C338.018 411.941 326.423 416.765 311.755 414.688C297.32 412.644 280.311 403.978 260.26 386.448L264.75 379.896C268.572 381.899 271.57 383.163 273.975 383.763C276.351 384.355 277.826 384.219 278.843 383.81C279.838 383.41 280.968 382.517 282.196 380.43C283.397 378.388 284.547 375.445 285.688 371.331L283.133 153.734L368.368 116.868ZM289.694 371.846C286.269 384.511 282.201 389.15 274.71 387.99C271.481 387.491 267.616 385.914 262.893 383.438C266.384 386.49 269.766 389.256 273.044 391.752C344.007 445.803 365.681 373.485 366.157 338.774L364.416 122.936L287.165 156.348L289.694 371.846Z" fill="url(#paint3_linear)" fill-opacity="0.57"/>
</g>
<g filter="url(#filter4_di)">
<path d="M106.499 151.874L107.179 367.718L184.594 334.686L183.123 119.178C188.114 101.08 194.338 99.4211 209.981 107.718C131.255 38.2052 107.175 115.563 106.499 151.874Z" fill="url(#paint4_linear)"/>
</g>
<g filter="url(#filter5_di)">
<path fill-rule="evenodd" clip-rule="evenodd" d="M103.198 373.766L102.498 151.842L102.499 151.798C102.675 142.355 104.364 130.328 108.07 118.668C111.763 107.05 117.569 95.449 126.211 87.2161C134.997 78.8468 146.616 74.0793 161.274 76.2283C175.698 78.343 192.665 87.0926 212.629 104.721L208.107 111.251C204.295 109.229 201.303 107.951 198.901 107.339C196.528 106.735 195.053 106.863 194.034 107.268C193.037 107.663 191.902 108.55 190.664 110.631C189.453 112.667 188.288 115.605 187.128 119.713L188.612 337.32L103.198 373.766ZM183.123 119.178C186.611 106.53 190.701 101.911 198.187 103.108C201.413 103.623 205.27 105.219 209.981 107.718C206.506 104.649 203.137 101.867 199.872 99.3543C129.175 44.9553 107.146 117.166 106.499 151.874L107.179 367.718L184.594 334.686L183.123 119.178Z" fill="url(#paint5_linear)" fill-opacity="0.57"/>
</g>
<g filter="url(#filter6_i)">
<path d="M483.25 231.5H450L417 198.25H516.25L483.25 231.5ZM415.5 199.25V299.5L382.5 332V232.25L415.5 199.25ZM449 232.25V299.25H416.25V199.25L449 232.25ZM484.25 264.5V232.25L517 199.5V232L484.25 264.5ZM550.75 264.5L518.25 232V199.5L550.75 232.25V264.5ZM450.25 232.5H483V249.25H450.25V232.5ZM517.5 299.25L484.25 265.75L517.5 232.75L550.5 265.75L517.5 299.25ZM516.25 299.25H450.25V266.5H483.25L516.25 299.25ZM483.25 333H383.5L416 300.5H516.25L483.25 333ZM517.5 366.75L484.25 333.75L517.5 300.5L550.5 333.75L517.5 366.75ZM383.5 334.5H483.25L516.25 367H416L383.5 334.5Z" fill="url(#paint6_linear)"/>
<path d="M559.908 264.75V164L592.908 130.75V231.75L559.908 264.75ZM593.908 231.5V130.75L626.658 164V231.5H593.908ZM625.908 232.5L593.408 265.5H560.908L593.658 232.5H625.908ZM594.408 266.25L627.408 232.5L660.408 265.75L627.408 299L594.408 266.25ZM560.908 266.5H593.408L625.908 299.25H593.658L560.908 266.5ZM559.908 267.25L592.658 300L559.908 332.25V267.25ZM593.658 300.25H625.908L593.408 333H560.908L593.658 300.25ZM594.408 333.75L627.408 300.75L660.408 333.75L627.408 367L594.408 333.75ZM593.408 334L625.908 367H595.408L560.908 334H593.408Z" fill="url(#paint7_linear)"/>
<path d="M702.527 198.5L670.027 165.5L702.527 132.75L735.277 165.5L702.527 198.5ZM702.027 199.5V300.25L669.527 332.5V167L702.027 199.5ZM735.777 167V299.75H703.277V199.5L735.777 167ZM803.277 200L835.777 232.25H736.777V200H803.277ZM835.777 233.75L803.277 266H736.777V233.75H835.777ZM804.277 266.75L836.527 234.5V332.5L804.277 299.75V266.75ZM802.777 267V299.75H770.527V267H802.777ZM802.027 300.75L769.777 333.25H670.277L703.027 300.75H802.027ZM803.527 301.25L836.277 334L803.527 366.5L770.777 334L803.527 301.25ZM769.777 334.5L802.027 367H703.027L670.277 334.5H769.777Z" fill="url(#paint8_linear)"/>
<path d="M851.412 226.75L884.912 193.5L918.662 227L884.912 260.25L851.412 226.75ZM851.162 228.5L884.412 261.5V367L851.162 333.75V228.5ZM885.662 367V261.5L919.162 228.5V333.75L885.662 367Z" fill="url(#paint9_linear)"/>
<path d="M935.152 264.75V164L968.152 130.75V231.75L935.152 264.75ZM969.152 231.5V130.75L1001.9 164V231.5H969.152ZM1001.15 232.5L968.652 265.5H936.152L968.902 232.5H1001.15ZM969.652 266.25L1002.65 232.5L1035.65 265.75L1002.65 299L969.652 266.25ZM936.152 266.5H968.652L1001.15 299.25H968.902L936.152 266.5ZM935.152 267.25L967.902 300L935.152 332.25V267.25ZM968.902 300.25H1001.15L968.652 333H936.152L968.902 300.25ZM969.652 333.75L1002.65 300.75L1035.65 333.75L1002.65 367L969.652 333.75ZM968.652 334L1001.15 367H970.652L936.152 334H968.652Z" fill="url(#paint10_linear)"/>
</g>
<g filter="url(#filter7_i)">
<path fill-rule="evenodd" clip-rule="evenodd" d="M483 232.5H450.25V249.25H483V232.5ZM482.75 250.75H450.5V265H482.75V250.75ZM450.25 266.5V299.25H516.25L483.25 266.5H450.25ZM517.5 299.25L550.5 265.75L517.501 232.751L517.5 232.75L484.25 265.75L517.5 299.25ZM484.25 264.5L517 232V199.5L484.25 232.25V264.5ZM483.25 231.5H450L417 198.25H516.25L483.25 231.5ZM516.75 196.75H417V195.629L415.88 196.748L414.75 195.609V196.75H413.398L414.634 197.995L381 231.629V333H379.879L380.629 333.75L379.879 334.5H381V335.583L381.736 334.858L415.379 368.5H517.134L517.504 368.867L517.871 368.5H519.911L518.883 367.488L552.617 333.754L519.861 300.75H519.891L519.016 299.882L519.911 299H519.852L551.252 267.124L552.25 268.121V266.111L552.613 265.742L552.25 265.379V231.632L518.743 197.867L519.852 196.75H518.5V195.879L517.631 196.747L516.75 195.859V196.75ZM518.25 199.5V232L550.75 264.5V232.25L518.25 199.5ZM517.5 300.5L484.25 333.75L517.5 366.75L550.5 333.75L517.5 300.5ZM516.25 367L483.25 334.5H383.5L416 367H516.25ZM483.25 333L516.25 300.5H416L383.5 333H483.25ZM415.5 299.5V199.25L382.5 232.25V332L415.5 299.5ZM416.25 199.25V299.25H449V232.25L416.25 199.25ZM558.408 267H557.306L558.293 266.006L557.287 265H558.408V163.382L592.408 129.124V127.09L593.414 128.111L594.408 127.109V129.12L628.158 163.385V231H629.491L628.765 231.737L662.521 265.75L628.654 299.874L662.525 333.746L628.765 367.763L629.491 368.5H628.033L627.408 369.129L626.783 368.5H594.806L559.515 334.743L558.408 335.832V334.5H557.287L558.252 333.535L557.17 332.5H558.408V267ZM560.908 333H593.408L625.908 300.25H593.658L560.908 333ZM559.908 332.25V267.25L592.658 300L559.908 332.25ZM593.658 299.25H625.908L593.408 266.5H560.908L593.658 299.25ZM560.908 265.5L593.658 232.5H625.908L593.408 265.5H560.908ZM594.408 266.25L627.408 299L660.408 265.751L627.408 232.5L594.408 266.25ZM627.408 300.75L660.408 333.75L627.408 367L594.408 333.75L627.408 300.75ZM593.408 334H560.908L595.408 367H625.908L593.408 334ZM626.658 231.5V164L593.908 130.75V231.5H626.658ZM592.908 130.75L559.908 164V264.75L592.905 231.753L592.908 231.75V130.75ZM669.527 167L701.771 199.244L701.777 199.25L702.027 199.5V300.25L670.283 331.75L670.277 331.756L669.53 332.497L669.527 332.5V167ZM668.027 333V165.607L667.918 165.496L668.027 165.386V163.379L669.027 164.378L702.523 130.625L736.277 164.379L737.277 163.379V165.379L737.395 165.496L737.277 165.614V198.5H803.895L837.279 231.627L838.027 230.879V232.25H839.418L838.663 233L839.418 233.75H838.027V333.629L838.403 334.004L838.027 334.377V336.161L837.138 335.259L804.643 367.506L805.629 368.5H803.641L803.527 368.613L803.413 368.5H702.409L668.894 335.241L668.027 336.102V334.75H666.636L667.518 333.875L666.636 333H668.027ZM703.027 367H802.027L770.029 334.754L770.025 334.75L769.777 334.5H670.277L703.027 367ZM769.777 333.25L802.027 300.75H703.027L670.277 333.25H769.777ZM735.777 299.75V167L703.277 199.5V299.75H735.777ZM735.277 165.5L702.527 132.75L670.027 165.5L702.527 198.5L735.277 165.5ZM737.277 267.5V299.25H769.027V267.5H737.277ZM803.277 266L835.777 233.75H736.777V266H803.277ZM835.777 232.25L803.277 200H736.777V232.25H835.777ZM804.277 266.75V299.75L836.527 332.5V234.5L804.277 266.75ZM802.777 267H770.527V299.75H802.777V267ZM803.527 301.25L770.779 333.998L770.777 334L770.779 334.002L803.527 366.5L836.277 334L803.527 301.25ZM850.405 225.636L849.662 224.898V226.374L849.287 226.746L849.662 227.121V334.371L884.162 368.871V370.602L885.031 369.74L885.912 370.621V368.865L920.662 334.375V227.135L920.795 227.004L920.662 226.872V224.917L919.674 225.891L884.912 191.387L850.405 225.636ZM851.413 226.749L884.912 260.25L918.662 227L884.912 193.5L851.413 226.749ZM885.662 261.5V367L919.162 333.75V228.5L885.662 261.5ZM884.412 261.5L851.162 228.5V333.75L884.412 367V261.5ZM933.652 267H932.55L933.537 266.006L932.531 265H933.652V163.382L967.652 129.124V127.09L968.658 128.111L969.652 127.109V129.12L1003.4 163.385V231H1004.73L1004.01 231.737L1037.77 265.75L1003.9 299.874L1037.77 333.746L1004.01 367.763L1004.73 368.5H1003.28L1002.65 369.129L1002.03 368.5H970.05L934.759 334.743L933.652 335.832V334.5H932.531L933.496 333.535L932.414 332.5H933.652V267ZM936.152 333H968.652L1001.15 300.25H968.902L936.152 333ZM935.152 332.25V267.25L967.902 300L935.152 332.25ZM968.902 299.25H1001.15L968.652 266.5H936.152L968.902 299.25ZM936.152 265.5L968.902 232.5H1001.15L968.652 265.5H936.152ZM969.653 266.25L1002.65 299L1035.65 265.751L1002.65 232.5L969.653 266.25ZM1002.65 300.75L1035.65 333.75L1002.65 367L969.652 333.75L1002.65 300.75ZM968.652 334H936.152L970.652 367H1001.15L968.652 334ZM1001.9 231.5V164L969.152 130.75V231.5H1001.9ZM968.152 130.75L935.152 164V264.75L968.149 231.753L968.152 231.75V130.75Z" fill="white"/>
</g>
<defs>
<filter id="filter0_di" x="151.111" y="82.1217" width="180.184" height="238.084" filterUnits="userSpaceOnUse" color-interpolation-filters="sRGB">
<feFlood flood-opacity="0" result="BackgroundImageFix"/>
<feColorMatrix in="SourceAlpha" type="matrix" values="0 0 0 0 0 0 0 0 0 0 0 0 0 0 0 0 0 0 127 0"/>
<feOffset dy="4"/>
<feGaussianBlur stdDeviation="2"/>
<feColorMatrix type="matrix" values="0 0 0 0 0 0 0 0 0 0 0 0 0 0 0 0 0 0 0.25 0"/>
<feBlend mode="normal" in2="BackgroundImageFix" result="effect1_dropShadow"/>
<feBlend mode="normal" in="SourceGraphic" in2="effect1_dropShadow" result="shape"/>
<feColorMatrix in="SourceAlpha" type="matrix" values="0 0 0 0 0 0 0 0 0 0 0 0 0 0 0 0 0 0 127 0" result="hardAlpha"/>
<feOffset dy="4"/>
<feGaussianBlur stdDeviation="2"/>
<feComposite in2="hardAlpha" operator="arithmetic" k2="-1" k3="1"/>
<feColorMatrix type="matrix" values="0 0 0 0 0 0 0 0 0 0 0 0 0 0 0 0 0 0 0.25 0"/>
<feBlend mode="normal" in2="shape" result="effect2_innerShadow"/>
</filter>
<filter id="filter1_di" x="181.332" y="202.368" width="112.725" height="193.763" filterUnits="userSpaceOnUse" color-interpolation-filters="sRGB">
<feFlood flood-opacity="0" result="BackgroundImageFix"/>
<feColorMatrix in="SourceAlpha" type="matrix" values="0 0 0 0 0 0 0 0 0 0 0 0 0 0 0 0 0 0 127 0"/>
<feOffset dy="4"/>
<feGaussianBlur stdDeviation="2"/>
<feColorMatrix type="matrix" values="0 0 0 0 0 0 0 0 0 0 0 0 0 0 0 0 0 0 0.25 0"/>
<feBlend mode="normal" in2="BackgroundImageFix" result="effect1_dropShadow"/>
<feBlend mode="normal" in="SourceGraphic" in2="effect1_dropShadow" result="shape"/>
<feColorMatrix in="SourceAlpha" type="matrix" values="0 0 0 0 0 0 0 0 0 0 0 0 0 0 0 0 0 0 127 0" result="hardAlpha"/>
<feOffset dy="4"/>
<feGaussianBlur stdDeviation="2"/>
<feComposite in2="hardAlpha" operator="arithmetic" k2="-1" k3="1"/>
<feColorMatrix type="matrix" values="0 0 0 0 0 0 0 0 0 0 0 0 0 0 0 0 0 0 0.25 0"/>
<feBlend mode="normal" in2="shape" result="effect2_innerShadow"/>
</filter>
<filter id="filter2_di" x="252.893" y="116.936" width="123.264" height="308.234" filterUnits="userSpaceOnUse" color-interpolation-filters="sRGB">
<feFlood flood-opacity="0" result="BackgroundImageFix"/>
<feColorMatrix in="SourceAlpha" type="matrix" values="0 0 0 0 0 0 0 0 0 0 0 0 0 0 0 0 0 0 127 0"/>
<feOffset dy="4"/>
<feGaussianBlur stdDeviation="5"/>
<feColorMatrix type="matrix" values="0 0 0 0 0 0 0 0 0 0 0 0 0 0 0 0 0 0 0.25 0"/>
<feBlend mode="normal" in2="BackgroundImageFix" result="effect1_dropShadow"/>
<feBlend mode="normal" in="SourceGraphic" in2="effect1_dropShadow" result="shape"/>
<feColorMatrix in="SourceAlpha" type="matrix" values="0 0 0 0 0 0 0 0 0 0 0 0 0 0 0 0 0 0 127 0" result="hardAlpha"/>
<feOffset dy="4"/>
<feGaussianBlur stdDeviation="2"/>
<feComposite in2="hardAlpha" operator="arithmetic" k2="-1" k3="1"/>
<feColorMatrix type="matrix" values="0 0 0 0 0 0 0 0 0 0 0 0 0 0 0 0 0 0 0.25 0"/>
<feBlend mode="normal" in2="shape" result="effect2_innerShadow"/>
</filter>
<filter id="filter3_di" x="250.26" y="110.868" width="129.898" height="318.301" filterUnits="userSpaceOnUse" color-interpolation-filters="sRGB">
<feFlood flood-opacity="0" result="BackgroundImageFix"/>
<feColorMatrix in="SourceAlpha" type="matrix" values="0 0 0 0 0 0 0 0 0 0 0 0 0 0 0 0 0 0 127 0"/>
<feOffset dy="4"/>
<feGaussianBlur stdDeviation="5"/>
<feColorMatrix type="matrix" values="0 0 0 0 0 0 0 0 0 0 0 0 0 0 0 0 0 0 0.25 0"/>
<feBlend mode="normal" in2="BackgroundImageFix" result="effect1_dropShadow"/>
<feBlend mode="normal" in="SourceGraphic" in2="effect1_dropShadow" result="shape"/>
<feColorMatrix in="SourceAlpha" type="matrix" values="0 0 0 0 0 0 0 0 0 0 0 0 0 0 0 0 0 0 127 0" result="hardAlpha"/>
<feOffset dy="4"/>
<feGaussianBlur stdDeviation="2"/>
<feComposite in2="hardAlpha" operator="arithmetic" k2="-1" k3="1"/>
<feColorMatrix type="matrix" values="0 0 0 0 0 0 0 0 0 0 0 0 0 0 0 0 0 0 0.25 0"/>
<feBlend mode="normal" in2="shape" result="effect2_innerShadow"/>
</filter>
<filter id="filter4_di" x="96.4989" y="73.714" width="123.482" height="308.004" filterUnits="userSpaceOnUse" color-interpolation-filters="sRGB">
<feFlood flood-opacity="0" result="BackgroundImageFix"/>
<feColorMatrix in="SourceAlpha" type="matrix" values="0 0 0 0 0 0 0 0 0 0 0 0 0 0 0 0 0 0 127 0"/>
<feOffset dy="4"/>
<feGaussianBlur stdDeviation="5"/>
<feColorMatrix type="matrix" values="0 0 0 0 0 0 0 0 0 0 0 0 0 0 0 0 0 0 0.25 0"/>
<feBlend mode="normal" in2="BackgroundImageFix" result="effect1_dropShadow"/>
<feBlend mode="normal" in="SourceGraphic" in2="effect1_dropShadow" result="shape"/>
<feColorMatrix in="SourceAlpha" type="matrix" values="0 0 0 0 0 0 0 0 0 0 0 0 0 0 0 0 0 0 127 0" result="hardAlpha"/>
<feOffset dy="4"/>
<feGaussianBlur stdDeviation="2"/>
<feComposite in2="hardAlpha" operator="arithmetic" k2="-1" k3="1"/>
<feColorMatrix type="matrix" values="0 0 0 0 0 0 0 0 0 0 0 0 0 0 0 0 0 0 0.25 0"/>
<feBlend mode="normal" in2="shape" result="effect2_innerShadow"/>
</filter>
<filter id="filter5_di" x="92.4982" y="69.7143" width="130.131" height="318.052" filterUnits="userSpaceOnUse" color-interpolation-filters="sRGB">
<feFlood flood-opacity="0" result="BackgroundImageFix"/>
<feColorMatrix in="SourceAlpha" type="matrix" values="0 0 0 0 0 0 0 0 0 0 0 0 0 0 0 0 0 0 127 0"/>
<feOffset dy="4"/>
<feGaussianBlur stdDeviation="5"/>
<feColorMatrix type="matrix" values="0 0 0 0 0 0 0 0 0 0 0 0 0 0 0 0 0 0 0.25 0"/>
<feBlend mode="normal" in2="BackgroundImageFix" result="effect1_dropShadow"/>
<feBlend mode="normal" in="SourceGraphic" in2="effect1_dropShadow" result="shape"/>
<feColorMatrix in="SourceAlpha" type="matrix" values="0 0 0 0 0 0 0 0 0 0 0 0 0 0 0 0 0 0 127 0" result="hardAlpha"/>
<feOffset dy="4"/>
<feGaussianBlur stdDeviation="2"/>
<feComposite in2="hardAlpha" operator="arithmetic" k2="-1" k3="1"/>
<feColorMatrix type="matrix" values="0 0 0 0 0 0 0 0 0 0 0 0 0 0 0 0 0 0 0.25 0"/>
<feBlend mode="normal" in2="shape" result="effect2_innerShadow"/>
</filter>
<filter id="filter6_i" x="382.5" y="130.75" width="653.152" height="240.25" filterUnits="userSpaceOnUse" color-interpolation-filters="sRGB">
<feFlood flood-opacity="0" result="BackgroundImageFix"/>
<feBlend mode="normal" in="SourceGraphic" in2="BackgroundImageFix" result="shape"/>
<feColorMatrix in="SourceAlpha" type="matrix" values="0 0 0 0 0 0 0 0 0 0 0 0 0 0 0 0 0 0 127 0" result="hardAlpha"/>
<feOffset dy="4"/>
<feGaussianBlur stdDeviation="2"/>
<feComposite in2="hardAlpha" operator="arithmetic" k2="-1" k3="1"/>
<feColorMatrix type="matrix" values="0 0 0 0 0 0 0 0 0 0 0 0 0 0 0 0 0 0 0.25 0"/>
<feBlend mode="normal" in2="shape" result="effect1_innerShadow"/>
</filter>
<filter id="filter7_i" x="379.879" y="127.09" width="657.891" height="247.532" filterUnits="userSpaceOnUse" color-interpolation-filters="sRGB">
<feFlood flood-opacity="0" result="BackgroundImageFix"/>
<feBlend mode="normal" in="SourceGraphic" in2="BackgroundImageFix" result="shape"/>
<feColorMatrix in="SourceAlpha" type="matrix" values="0 0 0 0 0 0 0 0 0 0 0 0 0 0 0 0 0 0 127 0" result="hardAlpha"/>
<feOffset dy="4"/>
<feGaussianBlur stdDeviation="2"/>
<feComposite in2="hardAlpha" operator="arithmetic" k2="-1" k3="1"/>
<feColorMatrix type="matrix" values="0 0 0 0 0 0 0 0 0 0 0 0 0 0 0 0 0 0 0.25 0"/>
<feBlend mode="normal" in2="shape" result="effect1_innerShadow"/>
</filter>
<linearGradient id="paint0_linear" x1="301.997" y1="252.565" x2="123.623" y2="86.4554" gradientUnits="userSpaceOnUse">
<stop stop-color="#0F052F"/>
<stop offset="0.458333" stop-color="#251C42" stop-opacity="0.908155"/>
<stop offset="0.635417" stop-color="#453D5E" stop-opacity="0.775073"/>
<stop offset="1" stop-color="white" stop-opacity="0"/>
</linearGradient>
<linearGradient id="paint1_linear" x1="171.152" y1="238.573" x2="349.709" y2="406.308" gradientUnits="userSpaceOnUse">
<stop stop-color="#0F052F"/>
<stop offset="0.458333" stop-color="#251C42" stop-opacity="0.908155"/>
<stop offset="0.635417" stop-color="#453D5E" stop-opacity="0.775073"/>
<stop offset="1" stop-color="white" stop-opacity="0"/>
</linearGradient>
<linearGradient id="paint2_linear" x1="282" y1="407" x2="368.122" y2="113.036" gradientUnits="userSpaceOnUse">
<stop stop-color="#1E293F"/>
<stop offset="1" stop-color="#9EB1CD" stop-opacity="0.73"/>
</linearGradient>
<linearGradient id="paint3_linear" x1="306" y1="422" x2="354.131" y2="104.02" gradientUnits="userSpaceOnUse">
<stop stop-color="#1C79E7"/>
<stop offset="1" stop-color="#3F78BB" stop-opacity="0"/>
</linearGradient>
<linearGradient id="paint4_linear" x1="190.99" y1="84.0623" x2="103.425" y2="377.6" gradientUnits="userSpaceOnUse">
<stop stop-color="#1E293F"/>
<stop offset="1" stop-color="#9EB1CD" stop-opacity="0.73"/>
</linearGradient>
<linearGradient id="paint5_linear" x1="167.064" y1="68.9446" x2="117.371" y2="386.684" gradientUnits="userSpaceOnUse">
<stop stop-color="#1C79E7"/>
<stop offset="1" stop-color="#3F78BB" stop-opacity="0"/>
</linearGradient>
<linearGradient id="paint6_linear" x1="304.231" y1="303.398" x2="1135" y2="300.02" gradientUnits="userSpaceOnUse">
<stop offset="0.03125" stop-color="#0E0E60" stop-opacity="0.979152"/>
<stop offset="0.484375" stop-color="#50506A" stop-opacity="0.897813"/>
<stop offset="0.703125" stop-color="#232385"/>
<stop offset="0.979167" stop-color="#67677F" stop-opacity="0.676702"/>
</linearGradient>
<linearGradient id="paint7_linear" x1="304.231" y1="303.398" x2="1135" y2="300.02" gradientUnits="userSpaceOnUse">
<stop offset="0.03125" stop-color="#0E0E60" stop-opacity="0.979152"/>
<stop offset="0.484375" stop-color="#50506A" stop-opacity="0.897813"/>
<stop offset="0.703125" stop-color="#232385"/>
<stop offset="0.979167" stop-color="#67677F" stop-opacity="0.676702"/>
</linearGradient>
<linearGradient id="paint8_linear" x1="304.231" y1="303.398" x2="1135" y2="300.02" gradientUnits="userSpaceOnUse">
<stop offset="0.03125" stop-color="#0E0E60" stop-opacity="0.979152"/>
<stop offset="0.484375" stop-color="#50506A" stop-opacity="0.897813"/>
<stop offset="0.703125" stop-color="#232385"/>
<stop offset="0.979167" stop-color="#67677F" stop-opacity="0.676702"/>
</linearGradient>
<linearGradient id="paint9_linear" x1="304.231" y1="303.398" x2="1135" y2="300.02" gradientUnits="userSpaceOnUse">
<stop offset="0.03125" stop-color="#0E0E60" stop-opacity="0.979152"/>
<stop offset="0.484375" stop-color="#50506A" stop-opacity="0.897813"/>
<stop offset="0.703125" stop-color="#232385"/>
<stop offset="0.979167" stop-color="#67677F" stop-opacity="0.676702"/>
</linearGradient>
<linearGradient id="paint10_linear" x1="304.231" y1="303.398" x2="1135" y2="300.02" gradientUnits="userSpaceOnUse">
<stop offset="0.03125" stop-color="#0E0E60" stop-opacity="0.979152"/>
<stop offset="0.484375" stop-color="#50506A" stop-opacity="0.897813"/>
<stop offset="0.703125" stop-color="#232385"/>
<stop offset="0.979167" stop-color="#67677F" stop-opacity="0.676702"/>
</linearGradient>
</defs>
</svg>
